<svg height="26" viewBox="0 0 26 26" width="26" xmlns="http://www.w3.org/2000/svg" xmlns:xlink="http://www.w3.org/1999/xlink"><mask id="a" fill="#fff"><path d="m13 0c-7.17919758 0-13 5.82289919-13 13 0 7.1812944 5.82080242 13 13 13 7.1791976 0 13-5.8187056 13-13 0-7.17710081-5.8208024-13-13-13zm0 5.76612903c1.2159194 0 2.2016129.98569355 2.2016129 2.20161291 0 1.21591935-.9856935 2.20161286-2.2016129 2.20161286s-2.2016129-.98569351-2.2016129-2.20161286c0-1.21591936.9856935-2.20161291 2.2016129-2.20161291zm2.9354839 13.31451617c0 .347383-.2816492.6290322-.6290323.6290322h-4.6129032c-.3473831 0-.6290323-.2816492-.6290323-.6290322v-1.2580646c0-.347383.2816492-.6290322.6290323-.6290322h.6290322v-3.3548387h-.6290322c-.3473831 0-.6290323-.2816492-.6290323-.6290323v-1.2580645c0-.3473831.2816492-.6290323.6290323-.6290323h3.3548387c.3473831 0 .6290323.2816492.6290323.6290323v5.2419355h.6290322c.3473831 0 .6290323.2816492.6290323.6290322z" fill="#fff" fill-rule="evenodd"/></mask><g fill="#fff" fill-rule="evenodd" mask="url(#a)"><path d="m0 0h26v26h-26z"/></g></svg>