<svg height="20" viewBox="0 0 24 20" width="24" xmlns="http://www.w3.org/2000/svg" xmlns:xlink="http://www.w3.org/1999/xlink"><mask id="a" fill="#fff"><path d="m6 5.4375v-1.875c0-.41423438.33576563-.75.75-.75h16.5c.4142344 0 .75.33576562.75.75v1.875c0 .41423438-.3357656.75-.75.75h-16.5c-.41423437 0-.75-.33576562-.75-.75zm.75 8.25h16.5c.4142344 0 .75-.3357656.75-.75v-1.875c0-.4142344-.3357656-.75-.75-.75h-16.5c-.41423437 0-.75.3357656-.75.75v1.875c0 .4142344.33576563.75.75.75zm0 7.5h16.5c.4142344 0 .75-.3357656.75-.75v-1.875c0-.4142344-.3357656-.75-.75-.75h-16.5c-.41423437 0-.75.3357656-.75.75v1.875c0 .4142344.33576563.75.75.75zm-6-14.4375h3c.41423438 0 .75-.33576563.75-.75v-3c0-.41423438-.33576562-.75-.75-.75h-3c-.41423437 0-.75.33576562-.75.75v3c0 .41423437.33576563.75.75.75zm0 7.5h3c.41423438 0 .75-.3357656.75-.75v-3c0-.4142344-.33576562-.75-.75-.75h-3c-.41423437 0-.75.3357656-.75.75v3c0 .4142344.33576563.75.75.75zm0 7.5h3c.41423438 0 .75-.3357656.75-.75v-3c0-.4142344-.33576562-.75-.75-.75h-3c-.41423437 0-.75.3357656-.75.75v3c0 .4142344.33576563.75.75.75z" fill="#fff" fill-rule="evenodd"/></mask><g fill="#fff" fill-rule="evenodd" mask="url(#a)" transform="translate(0 -2)"><path d="m0 0h24v24h-24z"/></g></svg>