<svg height="1024pt" preserveAspectRatio="xMidYMid meet" viewBox="0 0 1024 1024" width="1024pt" xmlns="http://www.w3.org/2000/svg"><g transform="matrix(.1 0 0 -.1 0 1024)"><path d="m1138 7678-3-2563h-565-565l-3-570-2-570h567 568l3-1987 2-1988h570 570v1988 1987h570 570v570 570h-570-570v2562 2563h-570-570z"/><path d="m4560 9222v-1018l-570 1h-570l2-570 3-570h565 565l3-3533 2-3532h570 570l2 3532 3 3533h568 567l-2 570-3 569-565 1h-565l-3 1018-2 1017h-570-570z"/><path d="m7968 6758-3-3483h-567-568v-567-568l23-1c12 0 268-1 570-1l547-1v-1068-1069h570 570v1069 1068l553 1c303 0 558 1 565 1 9 1 12 122 12 569v567h-552c-304-1-559 1-565 3-10 3-13 709-13 3483v3479h-570-570z"/></g></svg>